<svg width="30" height="30" viewBox="0 0 30 30" fill="none" xmlns="http://www.w3.org/2000/svg">
<mask id="mask0_23_502" style="mask-type:alpha" maskUnits="userSpaceOnUse" x="0" y="0" width="30" height="30">
<rect width="30" height="30" fill="#D9D9D9"/>
</mask>
<g mask="url(#mask0_23_502)">
<path d="M15 26.25L13.1875 24.625C11.0833 22.7292 9.34375 21.0938 7.96875 19.7188C6.59375 18.3438 5.5 17.1094 4.6875 16.0156C3.875 14.9219 3.30729 13.9167 2.98438 13C2.66146 12.0833 2.5 11.1458 2.5 10.1875C2.5 8.22917 3.15625 6.59375 4.46875 5.28125C5.78125 3.96875 7.41667 3.3125 9.375 3.3125C10.4583 3.3125 11.4896 3.54167 12.4688 4C13.4479 4.45833 14.2917 5.10417 15 5.9375C15.7083 5.10417 16.5521 4.45833 17.5313 4C18.5104 3.54167 19.5417 3.3125 20.625 3.3125C22.5833 3.3125 24.2188 3.96875 25.5313 5.28125C26.8438 6.59375 27.5 8.22917 27.5 10.1875C27.5 11.1458 27.3385 12.0833 27.0156 13C26.6927 13.9167 26.125 14.9219 25.3125 16.0156C24.5 17.1094 23.4062 18.3438 22.0312 19.7188C20.6562 21.0938 18.9167 22.7292 16.8125 24.625L15 26.25Z" fill="#FF9D2A"/>
</g>
</svg>
