<svg width="20" height="20" viewBox="0 0 20 20" fill="none" xmlns="http://www.w3.org/2000/svg">
<mask id="mask0_23_200" style="mask-type:alpha" maskUnits="userSpaceOnUse" x="0" y="0" width="20" height="20">
<rect width="20" height="20" fill="#D9D9D9"/>
</mask>
<g mask="url(#mask0_23_200)">
<path d="M10.0001 17.5L8.79175 16.4167C7.38897 15.1528 6.22925 14.0625 5.31258 13.1458C4.39591 12.2292 3.66675 11.4062 3.12508 10.6771C2.58341 9.94791 2.20494 9.27777 1.98966 8.66666C1.77439 8.05555 1.66675 7.43055 1.66675 6.79166C1.66675 5.48611 2.10425 4.39583 2.97925 3.52083C3.85425 2.64583 4.94453 2.20833 6.25008 2.20833C6.9723 2.20833 7.6598 2.36111 8.31258 2.66666C8.96536 2.97222 9.52786 3.40277 10.0001 3.95833C10.4723 3.40277 11.0348 2.97222 11.6876 2.66666C12.3404 2.36111 13.0279 2.20833 13.7501 2.20833C15.0556 2.20833 16.1459 2.64583 17.0209 3.52083C17.8959 4.39583 18.3334 5.48611 18.3334 6.79166C18.3334 7.43055 18.2258 8.05555 18.0105 8.66666C17.7952 9.27777 17.4167 9.94791 16.8751 10.6771C16.3334 11.4062 15.6042 12.2292 14.6876 13.1458C13.7709 14.0625 12.6112 15.1528 11.2084 16.4167L10.0001 17.5Z" fill="#DDDDDD"/>
</g>
</svg>
