<svg width="20" height="20" viewBox="0 0 20 20" fill="none" xmlns="http://www.w3.org/2000/svg">
<mask id="mask0_23_205" style="mask-type:alpha" maskUnits="userSpaceOnUse" x="0" y="0" width="20" height="20">
<rect width="20" height="20" fill="#D9D9D9"/>
</mask>
<g mask="url(#mask0_23_205)">
<path d="M10.0001 18.3333L7.79175 15H3.33341C2.87508 15 2.48272 14.8368 2.15633 14.5104C1.82994 14.184 1.66675 13.7917 1.66675 13.3333V3.33333C1.66675 2.875 1.82994 2.48264 2.15633 2.15625C2.48272 1.82986 2.87508 1.66666 3.33341 1.66666H16.6667C17.1251 1.66666 17.5174 1.82986 17.8438 2.15625C18.1702 2.48264 18.3334 2.875 18.3334 3.33333V13.3333C18.3334 13.7917 18.1702 14.184 17.8438 14.5104C17.5174 14.8368 17.1251 15 16.6667 15H12.2084L10.0001 18.3333Z" fill="#DDDDDD"/>
</g>
</svg>
